<svg width="58" height="58" viewBox="0 0 58 58" fill="none" xmlns="http://www.w3.org/2000/svg">
<rect x="1" y="1" width="56" height="56" rx="7" fill="white"/>
<rect x="1" y="1" width="56" height="56" rx="7" stroke="#333333" stroke-width="2"/>
<path fill-rule="evenodd" clip-rule="evenodd" d="M21.5 29C21.5 28.3787 22.0037 27.875 22.625 27.875H32.5819L29.3453 24.9359C28.8974 24.5053 28.8834 23.7931 29.3141 23.3453C29.7447 22.8974 30.4569 22.8834 30.9047 23.3141L36.1547 28.1891C36.3753 28.4012 36.5 28.694 36.5 29C36.5 29.306 36.3753 29.5988 36.1547 29.8109L30.9047 34.6859C30.4569 35.1166 29.7447 35.1026 29.3141 34.6547C28.8834 34.2069 28.8974 33.4947 29.3453 33.0641L32.5819 30.125H22.625C22.0037 30.125 21.5 29.6213 21.5 29Z" fill="#333333"/>
</svg>
