<svg width="130" height="62" viewBox="0 0 130 62" fill="none" xmlns="http://www.w3.org/2000/svg">
<rect x="1" y="1" width="128" height="60" rx="7" fill="#FFDECC"/>
<rect x="1" y="1" width="128" height="60" rx="7" stroke="#262626" stroke-width="2"/>
<g clip-path="url(#clip0_164_38377)">
<path d="M60.1793 41.5625C69.9882 41.5625 75.3548 33.434 75.3548 26.3871C75.3548 26.1586 75.3497 25.925 75.3396 25.6965C76.3835 24.9415 77.2845 24.0063 78 22.935C77.0277 23.3675 75.9954 23.6501 74.9384 23.7729C76.0514 23.1057 76.8847 22.0577 77.284 20.823C76.2369 21.4435 75.0919 21.8812 73.8979 22.1174C73.0934 21.2626 72.0297 20.6966 70.8713 20.5069C69.7129 20.3173 68.5243 20.5145 67.4892 21.0682C66.4541 21.6218 65.6303 22.501 65.145 23.5698C64.6597 24.6386 64.54 25.8376 64.8045 26.9812C62.6844 26.8748 60.6103 26.3241 58.7166 25.3647C56.823 24.4053 55.1522 23.0586 53.8124 21.412C53.1314 22.5861 52.9231 23.9753 53.2296 25.2975C53.5362 26.6196 54.3347 27.7755 55.4628 28.53C54.6158 28.5032 53.7875 28.2751 53.0461 27.8648V27.9308C53.0453 29.1629 53.4713 30.3572 54.2515 31.3107C55.0317 32.2643 56.1181 32.9182 57.3259 33.1613C56.5414 33.3759 55.718 33.4072 54.9194 33.2527C55.2602 34.3123 55.9234 35.239 56.8163 35.9036C57.7091 36.5681 58.7872 36.9374 59.9 36.9597C58.0108 38.4438 55.677 39.2487 53.2746 39.2449C52.8486 39.2442 52.4229 39.2181 52 39.1667C54.4406 40.7325 57.2797 41.5641 60.1793 41.5625Z" fill="#262626"/>
</g>
<defs>
<clipPath id="clip0_164_38377">
<rect width="26" height="26" fill="white" transform="translate(52 18)"/>
</clipPath>
</defs>
</svg>
