<svg width="130" height="62" viewBox="0 0 130 62" fill="none" xmlns="http://www.w3.org/2000/svg">
<rect x="1" y="1" width="128" height="60" rx="7" fill="#FFDECC"/>
<rect x="1" y="1" width="128" height="60" rx="7" stroke="#262626" stroke-width="2"/>
<g clip-path="url(#clip0_164_38380)">
<path d="M76.0754 18H53.9195C52.8582 18 52 18.8379 52 19.8738V42.1211C52 43.157 52.8582 44 53.9195 44H76.0754C77.1367 44 78 43.157 78 42.1262V19.8738C78 18.8379 77.1367 18 76.0754 18ZM59.7137 40.1559H55.8543V27.7449H59.7137V40.1559ZM57.784 26.0539C56.5449 26.0539 55.5445 25.0535 55.5445 23.8195C55.5445 22.5855 56.5449 21.5852 57.784 21.5852C59.018 21.5852 60.0184 22.5855 60.0184 23.8195C60.0184 25.0484 59.018 26.0539 57.784 26.0539ZM74.1559 40.1559H70.3016V34.123C70.3016 32.6859 70.2762 30.8324 68.2957 30.8324C66.2898 30.8324 65.9852 32.4016 65.9852 34.0215V40.1559H62.1359V27.7449H65.8328V29.441H65.8836C66.3965 28.466 67.6559 27.4352 69.5297 27.4352C73.4348 27.4352 74.1559 30.0047 74.1559 33.3461V40.1559Z" fill="#262626"/>
</g>
<defs>
<clipPath id="clip0_164_38380">
<rect width="26" height="26" fill="white" transform="translate(52 18)"/>
</clipPath>
</defs>
</svg>
