<svg width="79" height="78" viewBox="0 0 79 78" fill="none" xmlns="http://www.w3.org/2000/svg">
<rect x="1.66797" y="1" width="76" height="76" rx="13" fill="#FFDECC"/>
<rect x="1.66797" y="1" width="76" height="76" rx="13" stroke="#262626" stroke-width="2"/>
<path fill-rule="evenodd" clip-rule="evenodd" d="M34.3555 31.5625C34.3555 28.6285 36.734 26.25 39.668 26.25C42.602 26.25 44.9805 28.6285 44.9805 31.5625C44.9805 34.4965 42.602 36.875 39.668 36.875C36.734 36.875 34.3555 34.4965 34.3555 31.5625Z" fill="#262626"/>
<path fill-rule="evenodd" clip-rule="evenodd" d="M44.9805 35.8125C44.9805 33.4653 46.8833 31.5625 49.2305 31.5625C51.5777 31.5625 53.4805 33.4653 53.4805 35.8125C53.4805 38.1597 51.5777 40.0625 49.2305 40.0625C46.8833 40.0625 44.9805 38.1597 44.9805 35.8125Z" fill="#262626"/>
<path fill-rule="evenodd" clip-rule="evenodd" d="M25.8555 35.8125C25.8555 33.4653 27.7583 31.5625 30.1055 31.5625C32.4527 31.5625 34.3555 33.4653 34.3555 35.8125C34.3555 38.1597 32.4527 40.0625 30.1055 40.0625C27.7583 40.0625 25.8555 38.1597 25.8555 35.8125Z" fill="#262626"/>
<path fill-rule="evenodd" clip-rule="evenodd" d="M31.6069 43.4165C33.3041 40.7629 36.2798 39 39.668 39C43.0566 39 46.0326 40.7633 47.7296 43.4175C48.9029 45.2524 49.4104 47.4649 49.1723 49.6221C49.1351 49.9592 48.9392 50.2583 48.645 50.4271C45.9996 51.945 42.9335 52.8125 39.668 52.8125C36.4024 52.8125 33.3363 51.945 30.6909 50.4271C30.3967 50.2583 30.2008 49.9592 30.1636 49.6221C29.9255 47.4645 30.4333 45.2516 31.6069 43.4165Z" fill="#262626"/>
<path d="M29.8679 42.1927C29.8508 42.2189 29.8339 42.2452 29.817 42.2716C28.4493 44.4101 27.8233 46.957 28.0155 49.4678C27.1541 49.3369 26.3183 49.1265 25.5161 48.8439L25.3532 48.7866C25.0561 48.682 24.8485 48.4122 24.8236 48.0982L24.8099 47.9261C24.7987 47.7853 24.793 47.6432 24.793 47.5C24.793 44.6456 27.0441 42.317 29.8679 42.1927Z" fill="#262626"/>
<path d="M51.321 49.4677C51.513 46.9574 50.8874 44.4111 49.5202 42.2728C49.5031 42.246 49.4859 42.2193 49.4686 42.1927C52.2921 42.3173 54.543 44.6458 54.543 47.5C54.543 47.6432 54.5373 47.7853 54.5261 47.9261L54.5124 48.0982C54.4874 48.4122 54.2798 48.682 53.9827 48.7866L53.8199 48.8439C53.0178 49.1264 52.1822 49.3368 51.321 49.4677Z" fill="#262626"/>
</svg>
