<svg width="79" height="78" viewBox="0 0 79 78" fill="none" xmlns="http://www.w3.org/2000/svg">
<rect x="1.33203" y="1" width="76" height="76" rx="13" fill="#FFDECC"/>
<rect x="1.33203" y="1" width="76" height="76" rx="13" stroke="#262626" stroke-width="2"/>
<path d="M38.2695 28.4216C36.1226 27.0473 33.5697 26.25 30.832 26.25C29.2195 26.25 27.6694 26.5268 26.228 27.0362C25.8034 27.1863 25.5195 27.5877 25.5195 28.038V48.2255C25.5195 48.5704 25.687 48.8939 25.9686 49.093C26.2502 49.2921 26.6109 49.3422 26.9361 49.2273C28.1533 48.7971 29.4641 48.5625 30.832 48.5625C33.6583 48.5625 36.2483 49.5644 38.2695 51.2339V28.4216Z" fill="#262626"/>
<path d="M40.3945 51.2339C42.4158 49.5644 45.0058 48.5625 47.832 48.5625C49.1999 48.5625 50.5108 48.7971 51.728 49.2273C52.0531 49.3422 52.4139 49.2921 52.6955 49.093C52.9771 48.8939 53.1445 48.5704 53.1445 48.2255V28.038C53.1445 27.5877 52.8607 27.1863 52.4361 27.0362C50.9947 26.5268 49.4445 26.25 47.832 26.25C45.0944 26.25 42.5414 27.0473 40.3945 28.4216V51.2339Z" fill="#262626"/>
</svg>
