<svg width="36" height="36" viewBox="0 0 36 36" fill="none" xmlns="http://www.w3.org/2000/svg">
<rect x="1" y="1" width="34" height="34" rx="5" fill="#FFF5F0"/>
<rect x="1" y="1" width="34" height="34" rx="5" stroke="#262626" stroke-width="2"/>
<path d="M23.8335 17.1666H18.8335V12.1666C18.8335 11.9456 18.7457 11.7337 18.5894 11.5774C18.4331 11.4211 18.2212 11.3333 18.0002 11.3333C17.7791 11.3333 17.5672 11.4211 17.4109 11.5774C17.2546 11.7337 17.1668 11.9456 17.1668 12.1666V17.1666H12.1668C11.9458 17.1666 11.7339 17.2544 11.5776 17.4107C11.4213 17.567 11.3335 17.779 11.3335 18C11.3335 18.221 11.4213 18.433 11.5776 18.5892C11.7339 18.7455 11.9458 18.8333 12.1668 18.8333H17.1668V23.8333C17.1668 24.0543 17.2546 24.2663 17.4109 24.4226C17.5672 24.5788 17.7791 24.6666 18.0002 24.6666C18.2212 24.6666 18.4331 24.5788 18.5894 24.4226C18.7457 24.2663 18.8335 24.0543 18.8335 23.8333V18.8333H23.8335C24.0545 18.8333 24.2665 18.7455 24.4228 18.5892C24.579 18.433 24.6668 18.221 24.6668 18C24.6668 17.779 24.579 17.567 24.4228 17.4107C24.2665 17.2544 24.0545 17.1666 23.8335 17.1666Z" fill="#262626"/>
</svg>
