<svg width="36" height="36" viewBox="0 0 36 36" fill="none" xmlns="http://www.w3.org/2000/svg">
<rect x="1" y="1" width="34" height="34" rx="5" fill="#FFF5F0"/>
<rect x="1" y="1" width="34" height="34" rx="5" stroke="#262626" stroke-width="2"/>
<path d="M23.8335 17.1667H12.1668C11.9458 17.1667 11.7339 17.2545 11.5776 17.4108C11.4213 17.567 11.3335 17.779 11.3335 18C11.3335 18.221 11.4213 18.433 11.5776 18.5893C11.7339 18.7456 11.9458 18.8334 12.1668 18.8334H23.8335C24.0545 18.8334 24.2665 18.7456 24.4228 18.5893C24.579 18.433 24.6668 18.221 24.6668 18C24.6668 17.779 24.579 17.567 24.4228 17.4108C24.2665 17.2545 24.0545 17.1667 23.8335 17.1667Z" fill="#262626"/>
</svg>
